<svg width="22" height="22" viewBox="0 0 22 22" fill="none" xmlns="http://www.w3.org/2000/svg">
<path d="M8.75 2.5C10.475 2.5 12.0375 3.2 13.175 4.325L10 7.5H17.5V0L14.9375 2.5625C13.35 0.975 11.1625 0 8.75 0C4.3375 0 0.7125 3.2625 0.0999999 7.5H2.625C3.2 4.65 5.725 2.5 8.75 2.5ZM15.8 13.925C16.625 12.8 17.2 11.4625 17.4 10H14.875C14.3 12.85 11.775 15 8.75 15C7.025 15 5.4625 14.3 4.325 13.175L7.5 10H0V17.5L2.5625 14.9375C4.15 16.525 6.3375 17.5 8.75 17.5C10.6875 17.5 12.475 16.8625 13.925 15.8L20 21.8625L21.8625 20L15.8 13.925Z" fill="white"/>
</svg>
